<?xml version="1.0" encoding="utf-8"?>
<!-- Generator: Adobe Illustrator 25.2.0, SVG Export Plug-In . SVG Version: 6.00 Build 0)  -->
<svg version="1.1" id="圖層_1" xmlns="http://www.w3.org/2000/svg" xmlns:xlink="http://www.w3.org/1999/xlink" x="0px" y="0px"
	 viewBox="0 0 447.2 56.1" style="enable-background:new 0 0 447.2 56.1;" xml:space="preserve">
<style type="text/css">
	.st0{fill:#888888;}
</style>
<g>
	<g>
		<path class="st0" d="M19.2,5.5c2.2,0,4.3,0.7,6.3,2c2,1.3,3.5,3.1,4.7,5.3c1.2,2.2,1.8,4.7,1.8,7.5c0,2.7-0.6,5.2-1.8,7.4
			c-1.2,2.2-2.8,4-4.7,5.4c-2,1.3-4.1,2-6.3,2H7.3L8,33.9v13.6c0,1.1-0.3,2.1-1,2.9c-0.7,0.8-1.6,1.2-2.7,1.2c-1.1,0-2-0.4-2.6-1.2
			c-0.7-0.8-1-1.7-1-2.9v-38c0-1.1,0.4-2.1,1.1-2.9c0.8-0.8,1.7-1.2,2.8-1.2H19.2z M19.2,27.6c0.8,0,1.6-0.4,2.4-1.1
			c0.8-0.7,1.4-1.6,1.9-2.7c0.5-1.1,0.8-2.3,0.8-3.5c0-1.3-0.3-2.5-0.8-3.6c-0.5-1.1-1.2-2-1.9-2.7c-0.8-0.7-1.6-1-2.4-1h-12L8,11.9
			v16.8l-0.7-1.1H19.2z"/>
		<path class="st0" d="M4.2,52.1c-1.2,0-2.3-0.5-3.1-1.3c-0.8-0.9-1.2-2-1.2-3.2v-38c0-1.3,0.4-2.4,1.3-3.3c0.9-0.9,1.9-1.3,3.2-1.3
			h14.7c2.3,0,4.6,0.7,6.6,2.1c2,1.4,3.7,3.2,4.9,5.5c1.2,2.3,1.9,4.9,1.9,7.8c0,2.8-0.6,5.4-1.9,7.7c-1.2,2.3-2.9,4.2-4.9,5.6
			c-2,1.4-4.3,2.1-6.6,2.1H8.5v11.9c0,1.3-0.4,2.4-1.2,3.2C6.6,51.7,5.5,52.1,4.2,52.1z M4.5,6c-1,0-1.8,0.3-2.4,1
			c-0.7,0.7-1,1.5-1,2.5v38c0,1,0.3,1.8,0.9,2.5c0.6,0.7,1.3,1,2.2,1c1,0,1.7-0.3,2.3-1c0.6-0.7,0.9-1.5,0.9-2.5V35.7h-1l2.2-4v2.8
			h10.7c2.1,0,4.1-0.6,6-1.9c1.9-1.3,3.4-3,4.6-5.2c1.2-2.1,1.7-4.6,1.7-7.2c0-2.7-0.6-5.1-1.7-7.2c-1.2-2.1-2.7-3.9-4.6-5.1
			c-1.9-1.2-3.9-1.9-6-1.9H4.5z M8.5,30.5L6.2,27h1.2V13.6H6.2L8.5,10v2.5h10.7c1,0,1.9,0.4,2.8,1.2c0.8,0.7,1.5,1.7,2.1,2.8
			c0.5,1.2,0.8,2.4,0.8,3.8c0,1.3-0.3,2.6-0.8,3.8c-0.5,1.2-1.2,2.2-2.1,2.9c-0.9,0.8-1.8,1.2-2.8,1.2H8.5V30.5z M8.5,27h10.7
			c0.7,0,1.3-0.3,2-0.9c0.7-0.6,1.3-1.5,1.8-2.6c0.5-1,0.7-2.1,0.7-3.3c0-1.2-0.2-2.3-0.7-3.3c-0.5-1-1.1-1.9-1.8-2.5
			c-0.7-0.6-1.3-0.9-2-0.9H8.5V27z"/>
	</g>
	<g>
		<path class="st0" d="M65.1,15.8L51.2,49.2c-0.3,0.8-0.8,1.5-1.4,1.9c-0.6,0.5-1.3,0.7-2,0.7c-1.2,0-2-0.3-2.6-1
			c-0.6-0.7-0.8-1.5-0.8-2.4c0-0.4,0.1-0.8,0.2-1.3L60.6,7.8c0.3-0.9,0.9-1.6,1.6-2c0.7-0.5,1.5-0.7,2.3-0.6c0.8,0,1.5,0.2,2.2,0.7
			c0.7,0.5,1.2,1.1,1.5,1.9L84,46.4c0.2,0.6,0.3,1.1,0.3,1.6c0,1.2-0.4,2.1-1.1,2.8c-0.8,0.7-1.6,1.1-2.5,1.1
			c-0.8,0-1.5-0.2-2.1-0.7c-0.6-0.5-1.1-1.1-1.5-2l-13.9-33L65.1,15.8z M53.2,41.2l3.6-7.6h17.4l1.2,7.6H53.2z"/>
		<path class="st0" d="M80.7,52.4c-0.9,0-1.7-0.3-2.4-0.8c-0.7-0.5-1.2-1.3-1.6-2.2l-3.2-7.6H54.9l-3.2,7.7
			c-0.3,0.9-0.9,1.7-1.6,2.2c-0.7,0.5-1.5,0.8-2.4,0.8c-1.3,0-2.3-0.4-3-1.2c-0.6-0.8-1-1.7-1-2.8c0-0.4,0.1-0.9,0.2-1.4L60.1,7.6
			c0.4-1,1-1.7,1.8-2.3c0.8-0.6,1.7-0.8,2.7-0.7c0,0,0,0,0,0c0.8,0,1.7,0.3,2.4,0.8c0.8,0.5,1.3,1.3,1.7,2.2l15.9,38.5
			c0.2,0.6,0.4,1.2,0.4,1.8c0,1.3-0.4,2.4-1.3,3.2C82.7,52,81.7,52.4,80.7,52.4z M74.6,41.8l3,7.2c0.3,0.7,0.7,1.3,1.3,1.7
			c1.1,0.9,2.6,0.8,3.9-0.3c0.6-0.6,1-1.4,1-2.4c0-0.4-0.1-0.9-0.3-1.4L67.6,8.1c-0.3-0.8-0.7-1.3-1.3-1.7c-0.6-0.4-1.2-0.6-1.8-0.6
			c-0.7-0.1-1.4,0.1-2,0.5c-0.6,0.4-1.1,1-1.4,1.8L45,47.4c-0.1,0.3-0.2,0.7-0.2,1c0,0.8,0.2,1.5,0.7,2.1c0.5,0.5,1.2,0.8,2.2,0.8
			c0.6,0,1.2-0.2,1.7-0.6c0.5-0.4,0.9-1,1.2-1.7l3-7.3h-1.4l4.1-8.7h0.9l6.2-14.8l-1-2.4L66,15l-1.3,3.2L71,33.1h3.7l1.4,8.7H74.6z
			 M74.1,40.6h0.6l-1-6.4h-2.2L74.1,40.6z M55.4,40.6h17.6l-2.7-6.4H58.1L55.4,40.6z M54.1,40.6L54.1,40.6l0.8-1.7L54.1,40.6z
			 M58.5,33.1h11.2l-5.6-13.4L58.5,33.1z M64,16.6l0.1,0.2l0.1-0.2L64,16.6z"/>
	</g>
	<g>
		<path class="st0" d="M121.6,5.5c4.1,0,7.2,1,9.2,3c2,2,3,4.9,3,8.8c0,2.1-0.5,3.9-1.5,5.4c-1,1.6-2.5,2.8-4.4,3.6
			c-1.9,0.9-4.3,1.3-7.2,1.3l0.3-3c1.3,0,2.9,0.2,4.6,0.6c1.7,0.4,3.4,1,5,2c1.6,0.9,2.9,2.3,4,3.9c1.1,1.7,1.6,3.9,1.6,6.5
			c0,2.9-0.5,5.3-1.4,7.1c-0.9,1.8-2.1,3.3-3.6,4.3c-1.5,1-3.1,1.7-4.8,2.1c-1.7,0.4-3.4,0.6-5,0.6h-16.1c-1.1,0-2.1-0.4-2.8-1.2
			c-0.8-0.8-1.1-1.7-1.1-2.9v-38c0-1.1,0.4-2.1,1.1-2.9c0.8-0.8,1.7-1.2,2.8-1.2H121.6z M120.4,13.2h-11.5l0.8-1.1v11.9l-0.8-0.6
			h11.6c1.2,0,2.4-0.4,3.4-1.3c1-0.8,1.5-2,1.5-3.6c0-1.9-0.5-3.3-1.4-4.1C123.2,13.7,121.9,13.2,120.4,13.2z M121,31.3h-11.7
			l0.6-0.5v13.9l-0.6-0.7h12.3c2,0,3.6-0.5,4.7-1.6c1.2-1.1,1.7-2.7,1.7-4.8c0-2-0.4-3.4-1.2-4.3c-0.8-0.9-1.7-1.4-2.8-1.6
			C122.8,31.4,121.9,31.3,121,31.3z"/>
		<path class="st0" d="M121.4,52.1h-16.1c-1.3,0-2.4-0.4-3.2-1.3c-0.9-0.9-1.3-2-1.3-3.3v-38c0-1.3,0.4-2.4,1.3-3.3
			c0.9-0.9,1.9-1.3,3.2-1.3h16.3c4.3,0,7.5,1.1,9.6,3.1c2.1,2.1,3.2,5.2,3.2,9.2c0,2.2-0.5,4.1-1.6,5.7c-0.8,1.2-1.8,2.2-3.1,3
			c0.4,0.2,0.8,0.4,1.2,0.7c1.7,1,3.1,2.4,4.2,4.1c1.1,1.8,1.7,4.1,1.7,6.8c0,3-0.5,5.4-1.4,7.4c-1,1.9-2.3,3.4-3.8,4.5
			c-1.6,1-3.3,1.8-5,2.2C124.7,51.9,123,52.1,121.4,52.1z M105.3,6c-1,0-1.8,0.3-2.4,1c-0.7,0.7-1,1.5-1,2.5v38c0,1,0.3,1.8,1,2.5
			c0.6,0.7,1.4,1,2.4,1h16.1c1.5,0,3.2-0.2,4.9-0.5c1.6-0.4,3.2-1,4.6-2c1.4-0.9,2.6-2.3,3.5-4.1c0.9-1.8,1.3-4.1,1.3-6.9
			c0-2.5-0.5-4.6-1.5-6.2c-1-1.6-2.3-2.9-3.8-3.8c-0.6-0.4-1.2-0.7-1.9-1c-0.1,0-0.2,0.1-0.3,0.1c-2,0.9-4.5,1.3-7.4,1.3h-0.6l0.3-4
			l-10.2,0v1.1l-3-2.3h1.9v-9.1h-1.4l2.6-3.2v2.1h10.1c1.6,0,3,0.5,4,1.4c1,1,1.6,2.5,1.6,4.5c0,1.7-0.6,3.1-1.7,4
			c-0.9,0.7-1.8,1.2-2.9,1.3c1.3,0,2.7,0.2,4.3,0.6c0.9,0.2,1.8,0.5,2.7,0.8c1.5-0.8,2.6-1.8,3.4-3.1c0.9-1.5,1.4-3.2,1.4-5.1
			c0-3.7-1-6.5-2.9-8.4C128.5,7,125.6,6,121.6,6H105.3z M121.6,25.1l-0.2,1.8c2.1,0,4-0.4,5.5-0.9c-0.5-0.1-0.9-0.3-1.4-0.4
			C124.1,25.4,122.8,25.2,121.6,25.1z M110.3,22.9h10.3c1.1,0,2.1-0.4,3-1.1c0.9-0.7,1.3-1.8,1.3-3.2c0-1.7-0.4-3-1.2-3.7
			c-0.8-0.8-1.9-1.1-3.3-1.1h-10.1V22.9z M110.3,46l-2.5-2.6h1.4l0-11.6h-1.5l2.6-2.4v1.2H121c0.9,0,2,0.1,3.1,0.3
			c1.2,0.2,2.2,0.9,3.1,1.8c0.9,1,1.3,2.5,1.3,4.7c0,2.3-0.6,4.1-1.9,5.2c-1.3,1.2-3,1.8-5.1,1.8h-11.1V46z M110.3,43.4h11.1
			c1.8,0,3.3-0.5,4.3-1.5c1-1,1.6-2.4,1.6-4.4c0-1.8-0.3-3.1-1-3.9c-0.7-0.8-1.5-1.3-2.5-1.5c-1-0.2-2-0.3-2.9-0.3h-10.6V43.4z"/>
	</g>
	<g>
		<path class="st0" d="M163.4,47.5c0,1.1-0.4,2.1-1.2,2.9c-0.8,0.8-1.8,1.2-2.8,1.2c-1.2,0-2.2-0.4-2.9-1.2
			c-0.7-0.8-1.1-1.7-1.1-2.9v-38c0-1.1,0.4-2.1,1.2-2.9c0.8-0.8,1.8-1.2,3-1.2c1,0,1.9,0.4,2.7,1.2c0.8,0.8,1.2,1.7,1.2,2.9V47.5z"
			/>
		<path class="st0" d="M159.3,52.1c-1.4,0-2.5-0.4-3.3-1.3c-0.8-0.9-1.3-2-1.3-3.2v-38c0-1.3,0.4-2.4,1.3-3.3c0.9-0.9,2-1.3,3.4-1.3
			c1.2,0,2.2,0.4,3.1,1.3c0.9,0.9,1.4,2,1.4,3.3v38c0,1.3-0.5,2.4-1.4,3.3C161.6,51.7,160.5,52.1,159.3,52.1z M159.4,6
			c-1.1,0-1.9,0.3-2.6,1c-0.7,0.7-1,1.5-1,2.5v38c0,1,0.3,1.8,0.9,2.5c0.6,0.7,1.4,1,2.5,1c0.9,0,1.7-0.3,2.5-1c0.7-0.7,1-1.5,1-2.5
			v-38c0-1-0.3-1.8-1-2.5C161.1,6.4,160.3,6,159.4,6z"/>
	</g>
	<g>
		<path class="st0" d="M228.9,52.2c-3,0-5.7-0.4-8.1-1.2c-2.4-0.8-4.7-2.1-6.9-4c-0.6-0.5-1-1-1.3-1.6c-0.3-0.6-0.5-1.2-0.5-1.8
			c0-1,0.4-1.9,1.1-2.7c0.7-0.8,1.6-1.2,2.7-1.2c0.8,0,1.5,0.3,2.2,0.8c1.6,1.4,3.3,2.4,4.9,3.1c1.6,0.7,3.6,1.1,6,1.1
			c1.6,0,3.1-0.3,4.4-0.8c1.3-0.5,2.4-1.2,3.2-2c0.8-0.9,1.2-1.8,1.2-2.9c0-1.3-0.4-2.4-1.2-3.4c-0.8-0.9-2-1.7-3.5-2.3
			c-1.6-0.6-3.6-1.1-6.1-1.5c-2.3-0.4-4.4-0.9-6.1-1.6c-1.8-0.7-3.2-1.6-4.4-2.8c-1.2-1.1-2.1-2.4-2.7-3.9c-0.6-1.5-0.9-3.2-0.9-5.1
			c0-2.9,0.7-5.3,2.2-7.3c1.4-2,3.4-3.6,5.8-4.6s5.2-1.6,8.1-1.6c2.8,0,5.4,0.4,7.8,1.3c2.4,0.9,4.3,1.9,5.8,3.3
			c1.2,1,1.9,2.2,1.9,3.5c0,1-0.4,1.8-1.1,2.6c-0.7,0.8-1.6,1.2-2.6,1.2c-0.6,0-1.2-0.2-1.7-0.6c-0.7-0.6-1.6-1.2-2.8-1.7
			c-1.2-0.5-2.4-1-3.7-1.4c-1.3-0.4-2.5-0.6-3.6-0.6c-1.9,0-3.4,0.2-4.7,0.7c-1.3,0.5-2.2,1.1-2.9,2c-0.6,0.8-1,1.8-1,2.9
			c0,1.3,0.4,2.4,1.1,3.3c0.8,0.9,1.8,1.5,3.3,2c1.4,0.5,3.1,1,5.1,1.3c2.6,0.5,4.9,1.1,6.8,1.7c2,0.7,3.6,1.5,4.9,2.5
			c1.3,1,2.3,2.3,2.9,3.9c0.6,1.6,1,3.5,1,5.7c0,2.9-0.8,5.3-2.3,7.4c-1.5,2.1-3.6,3.6-6.1,4.7C234.5,51.7,231.8,52.2,228.9,52.2z"
			/>
		<path class="st0" d="M228.9,52.8c-3.1,0-5.8-0.4-8.3-1.2c-2.5-0.8-4.9-2.2-7.1-4.2c-0.6-0.5-1.1-1.1-1.4-1.8
			c-0.3-0.7-0.5-1.4-0.5-2.1c0-1.2,0.4-2.2,1.2-3c0.8-0.9,1.9-1.3,3.1-1.3c0.9,0,1.8,0.3,2.5,0.9c1.6,1.3,3.2,2.3,4.7,3
			c1.5,0.7,3.5,1,5.7,1c1.5,0,2.9-0.2,4.2-0.7c1.2-0.5,2.3-1.1,3-1.9c0.7-0.8,1.1-1.6,1.1-2.5c0-1.2-0.3-2.2-1-3
			c-0.7-0.8-1.8-1.6-3.3-2.2c-1.5-0.6-3.5-1.1-5.9-1.4c-2.4-0.4-4.5-0.9-6.3-1.6c-1.8-0.7-3.4-1.7-4.6-2.9c-1.2-1.2-2.2-2.6-2.8-4.1
			c-0.6-1.6-0.9-3.4-0.9-5.3c0-3,0.8-5.5,2.3-7.6c1.5-2.1,3.5-3.7,6.1-4.8c2.5-1.1,5.3-1.6,8.4-1.6c2.8,0,5.5,0.4,8,1.3
			c2.4,0.9,4.5,2,6,3.4c1.4,1.1,2.1,2.4,2.1,3.9c0,1.1-0.4,2.1-1.2,3c-0.8,0.9-1.8,1.4-3,1.4c-0.8,0-1.5-0.2-2.1-0.7
			c-0.7-0.6-1.6-1.2-2.7-1.7c-1.1-0.5-2.3-1-3.6-1.4c-1.2-0.4-2.4-0.5-3.5-0.5c-1.8,0-3.3,0.2-4.5,0.7c-1.2,0.4-2,1-2.6,1.8
			c-0.6,0.7-0.9,1.6-0.9,2.6c0,1.2,0.3,2.1,1,2.9c0.7,0.8,1.7,1.4,3,1.9c1.4,0.5,3.1,0.9,5,1.3c2.6,0.5,4.9,1.1,6.9,1.7
			c2,0.7,3.7,1.6,5,2.6c1.4,1.1,2.4,2.5,3.1,4.1c0.7,1.6,1,3.6,1,5.9c0,3-0.8,5.6-2.4,7.7c-1.6,2.1-3.7,3.8-6.3,4.9
			C234.7,52.2,231.9,52.8,228.9,52.8z M215.8,40.3c-0.9,0-1.7,0.3-2.3,1c-0.6,0.7-0.9,1.4-0.9,2.3c0,0.5,0.1,1.1,0.4,1.6
			c0.3,0.5,0.7,1,1.2,1.5c2.1,1.9,4.4,3.2,6.7,3.9c2.3,0.7,5,1.1,8,1.1c2.8,0,5.5-0.5,7.9-1.6c2.4-1.1,4.4-2.6,5.9-4.6
			c1.5-2,2.2-4.3,2.2-7c0-2.2-0.3-4-0.9-5.5c-0.6-1.5-1.5-2.7-2.7-3.7c-1.2-1-2.8-1.8-4.7-2.4c-1.9-0.6-4.2-1.2-6.7-1.7
			c-2-0.4-3.8-0.9-5.2-1.4c-1.5-0.5-2.7-1.3-3.5-2.2c-0.8-1-1.3-2.2-1.3-3.6c0-1.2,0.4-2.3,1.1-3.2c0.7-0.9,1.8-1.6,3.1-2.2
			c1.3-0.5,3-0.8,4.9-0.8c1.2,0,2.4,0.2,3.8,0.6c1.3,0.4,2.6,0.9,3.8,1.4c1.2,0.6,2.2,1.2,2.9,1.8c0.4,0.3,0.8,0.4,1.4,0.4
			c0.8,0,1.5-0.3,2.2-1c0.6-0.7,0.9-1.4,0.9-2.3c0-1.1-0.5-2.1-1.7-3.1c-1.5-1.3-3.4-2.3-5.7-3.2c-2.3-0.8-4.9-1.3-7.6-1.3
			c-2.9,0-5.5,0.5-7.9,1.5c-2.3,1-4.2,2.5-5.6,4.4c-1.4,1.9-2.1,4.3-2.1,7c0,1.8,0.3,3.5,0.9,4.9c0.6,1.4,1.4,2.7,2.5,3.7
			c1.1,1.1,2.6,2,4.2,2.7c1.7,0.7,3.7,1.2,6,1.6c2.5,0.4,4.6,0.9,6.2,1.5c1.7,0.7,2.9,1.5,3.8,2.5c0.9,1,1.3,2.3,1.3,3.7
			c0,1.2-0.5,2.4-1.4,3.3c-0.9,0.9-2,1.6-3.4,2.2c-1.4,0.5-2.9,0.8-4.6,0.8c-2.4,0-4.5-0.4-6.2-1.1c-1.7-0.7-3.3-1.8-5-3.2
			C217.1,40.5,216.5,40.3,215.8,40.3z"/>
	</g>
	<g>
		<path class="st0" d="M283.2,5.5c2.2,0,4.3,0.7,6.3,2c2,1.3,3.5,3.1,4.7,5.3c1.2,2.2,1.8,4.7,1.8,7.5c0,2.7-0.6,5.2-1.8,7.4
			c-1.2,2.2-2.8,4-4.7,5.4c-2,1.3-4.1,2-6.3,2h-11.9l0.6-1.2v13.6c0,1.1-0.3,2.1-1,2.9c-0.7,0.8-1.6,1.2-2.7,1.2
			c-1.1,0-2-0.4-2.6-1.2c-0.7-0.8-1-1.7-1-2.9v-38c0-1.1,0.4-2.1,1.1-2.9c0.8-0.8,1.7-1.2,2.8-1.2H283.2z M283.2,27.6
			c0.8,0,1.6-0.4,2.4-1.1c0.8-0.7,1.4-1.6,1.9-2.7c0.5-1.1,0.8-2.3,0.8-3.5c0-1.3-0.3-2.5-0.8-3.6c-0.5-1.1-1.2-2-1.9-2.7
			c-0.8-0.7-1.6-1-2.4-1h-12l0.8-1.2v16.8l-0.7-1.1H283.2z"/>
		<path class="st0" d="M268.2,52.1c-1.2,0-2.3-0.5-3.1-1.3c-0.8-0.9-1.2-2-1.2-3.2v-38c0-1.3,0.4-2.4,1.3-3.3
			c0.9-0.9,1.9-1.3,3.2-1.3h14.7c2.3,0,4.6,0.7,6.6,2.1c2,1.4,3.7,3.2,4.9,5.5c1.2,2.3,1.9,4.9,1.9,7.8c0,2.8-0.6,5.4-1.9,7.7
			c-1.2,2.3-2.9,4.2-4.9,5.6c-2,1.4-4.3,2.1-6.6,2.1h-10.7v11.9c0,1.3-0.4,2.4-1.2,3.2C270.5,51.7,269.5,52.1,268.2,52.1z M268.5,6
			c-1,0-1.8,0.3-2.4,1c-0.7,0.7-1,1.5-1,2.5v38c0,1,0.3,1.8,0.9,2.5c0.6,0.7,1.3,1,2.2,1c1,0,1.7-0.3,2.3-1c0.6-0.7,0.9-1.5,0.9-2.5
			V35.7h-1l2.2-4v2.8h10.7c2.1,0,4.1-0.6,6-1.9c1.9-1.3,3.4-3,4.6-5.2c1.2-2.1,1.7-4.6,1.7-7.2c0-2.7-0.6-5.1-1.7-7.2
			c-1.2-2.1-2.7-3.9-4.6-5.1c-1.9-1.2-3.9-1.9-6-1.9H268.5z M272.5,30.5l-2.3-3.5h1.2V13.6h-1.3l2.4-3.6v2.5h10.7
			c1,0,1.9,0.4,2.8,1.2c0.8,0.7,1.5,1.7,2.1,2.8c0.5,1.2,0.8,2.4,0.8,3.8c0,1.3-0.3,2.6-0.8,3.8c-0.5,1.2-1.2,2.2-2.1,2.9
			c-0.9,0.8-1.8,1.2-2.8,1.2h-10.7V30.5z M272.5,27h10.7c0.7,0,1.3-0.3,2-0.9c0.7-0.6,1.3-1.5,1.8-2.6c0.5-1,0.7-2.1,0.7-3.3
			c0-1.2-0.2-2.3-0.7-3.3c-0.5-1-1.1-1.9-1.8-2.5c-0.7-0.6-1.3-0.9-2-0.9h-10.7V27z"/>
	</g>
	<g>
		<path class="st0" d="M329.1,15.8l-13.9,33.4c-0.3,0.8-0.8,1.5-1.4,1.9c-0.6,0.5-1.3,0.7-2,0.7c-1.2,0-2-0.3-2.6-1
			c-0.6-0.7-0.8-1.5-0.8-2.4c0-0.4,0.1-0.8,0.2-1.3l16.1-39.4c0.3-0.9,0.9-1.6,1.6-2c0.7-0.5,1.5-0.7,2.3-0.6c0.8,0,1.5,0.2,2.2,0.7
			c0.7,0.5,1.2,1.1,1.5,1.9l15.9,38.6c0.2,0.6,0.3,1.1,0.3,1.6c0,1.2-0.4,2.1-1.1,2.8c-0.8,0.7-1.6,1.1-2.5,1.1
			c-0.8,0-1.5-0.2-2.1-0.7c-0.6-0.5-1.1-1.1-1.5-2l-13.9-33L329.1,15.8z M317.1,41.2l3.5-7.6h17.4l1.2,7.6H317.1z"/>
		<path class="st0" d="M344.6,52.4c-0.9,0-1.7-0.3-2.4-0.8c-0.7-0.5-1.2-1.3-1.6-2.2l-3.2-7.6h-18.5l-3.2,7.7
			c-0.3,0.9-0.9,1.7-1.6,2.2c-0.7,0.5-1.5,0.8-2.4,0.8c-1.3,0-2.3-0.4-3-1.2c-0.6-0.8-1-1.7-1-2.8c0-0.4,0.1-0.9,0.2-1.4L324,7.6
			c0.4-1,1-1.7,1.8-2.3c0.8-0.6,1.7-0.8,2.7-0.7c0,0,0,0,0,0c0.8,0,1.7,0.3,2.4,0.8c0.8,0.5,1.3,1.3,1.7,2.2l15.9,38.5
			c0.2,0.7,0.4,1.2,0.4,1.8c0,1.3-0.4,2.4-1.3,3.2C346.6,52,345.7,52.4,344.6,52.4z M338.6,41.8l3,7.2c0.3,0.7,0.7,1.3,1.3,1.7
			c1.1,0.9,2.6,0.8,3.9-0.3c0.6-0.6,1-1.4,1-2.4c0-0.4-0.1-0.9-0.3-1.4L331.5,8.1c-0.3-0.8-0.7-1.3-1.3-1.7
			c-0.6-0.4-1.2-0.6-1.8-0.6c-0.8-0.1-1.4,0.1-2,0.5c-0.6,0.4-1.1,1-1.4,1.8L309,47.4c-0.1,0.3-0.2,0.7-0.2,1c0,0.8,0.2,1.5,0.7,2.1
			c0.5,0.5,1.2,0.8,2.2,0.8c0.6,0,1.2-0.2,1.7-0.6c0.5-0.4,0.9-1,1.2-1.7l3-7.3h-1.4l4.1-8.7h0.9l6.2-14.8l-1-2.4L330,15l-1.3,3.2
			l6.2,14.8h3.7l1.4,8.7H338.6z M338.1,40.6h0.6l-1-6.4h-2.2L338.1,40.6z M319.3,40.6h17.6l-2.7-6.4H322L319.3,40.6z M318,40.6
			L318,40.6l0.8-1.7L318,40.6z M322.5,33.1h11.2l-5.6-13.4L322.5,33.1z M328,16.6l0.1,0.2l0.1-0.2L328,16.6z"/>
	</g>
	<g>
		<path class="st0" d="M396.7,7.7c1.1,0.6,1.8,1.5,2,2.7c0.2,1.2-0.1,2.3-0.9,3.4c-0.6,0.8-1.3,1.2-2.2,1.3
			c-0.9,0.1-1.8-0.1-2.7-0.5c-1-0.5-2.1-0.9-3.3-1.1c-1.1-0.3-2.3-0.4-3.6-0.4c-2.3,0-4.4,0.4-6.2,1.1c-1.8,0.7-3.4,1.8-4.7,3.2
			c-1.3,1.4-2.3,3-2.9,4.9c-0.7,1.9-1,4-1,6.3c0,2.7,0.4,5,1.1,7c0.8,2,1.8,3.6,3.1,4.9c1.3,1.3,2.9,2.3,4.7,2.9
			c1.8,0.6,3.8,1,5.9,1c1.2,0,2.3-0.1,3.5-0.3c1.2-0.2,2.3-0.6,3.4-1.2c0.9-0.4,1.8-0.6,2.7-0.5c0.9,0.1,1.6,0.6,2.2,1.4
			c0.9,1.1,1.2,2.2,0.9,3.4c-0.2,1.2-0.9,2-2,2.5c-1.1,0.6-2.3,1-3.5,1.4c-1.2,0.4-2.4,0.7-3.6,0.9c-1.2,0.2-2.4,0.3-3.7,0.3
			c-3.1,0-6-0.5-8.8-1.5c-2.8-1-5.3-2.5-7.4-4.5c-2.2-2-3.9-4.4-5.1-7.4c-1.2-3-1.9-6.4-1.9-10.3c0-3.4,0.6-6.5,1.7-9.3
			c1.1-2.9,2.8-5.3,4.8-7.4c2.1-2.1,4.6-3.7,7.4-4.9c2.8-1.2,5.9-1.7,9.3-1.7c1.9,0,3.7,0.2,5.6,0.7C393.4,6.2,395.1,6.9,396.7,7.7z
			"/>
		<path class="st0" d="M386,52.8c-3.1,0-6.2-0.5-9-1.5c-2.8-1-5.4-2.6-7.6-4.6c-2.2-2-4-4.6-5.3-7.6c-1.3-3-1.9-6.6-1.9-10.5
			c0-3.4,0.6-6.7,1.8-9.6c1.2-2.9,2.8-5.5,5-7.6c2.1-2.1,4.7-3.8,7.6-5c2.9-1.2,6.1-1.8,9.5-1.8c1.9,0,3.8,0.2,5.7,0.7
			c1.8,0.4,3.6,1.1,5.2,2c1.3,0.7,2,1.7,2.3,3.1c0.2,1.4-0.1,2.7-1.1,3.8c-0.6,0.9-1.5,1.4-2.5,1.5c-1,0.1-2-0.1-3-0.6
			c-1-0.5-2-0.8-3.1-1.1c-1.1-0.3-2.3-0.4-3.5-0.4c-2.2,0-4.3,0.4-6,1.1c-1.7,0.7-3.3,1.7-4.5,3.1c-1.2,1.3-2.2,2.9-2.8,4.7
			c-0.6,1.8-1,3.9-1,6.1c0,2.6,0.4,4.9,1.1,6.8c0.7,1.9,1.7,3.5,3,4.7c1.3,1.3,2.8,2.2,4.5,2.8c2.7,1,5.9,1.2,9.1,0.6
			c1.1-0.2,2.2-0.6,3.2-1.1c1-0.5,2-0.7,3-0.5c1,0.2,1.9,0.7,2.6,1.6c1,1.2,1.3,2.5,1,3.8c-0.3,1.3-1,2.3-2.3,2.9
			c-1.1,0.6-2.3,1.1-3.5,1.4c-1.2,0.4-2.4,0.7-3.7,0.9C388.5,52.7,387.3,52.8,386,52.8z M386,5.7c-3.3,0-6.3,0.6-9.1,1.7
			c-2.8,1.1-5.2,2.7-7.2,4.7c-2,2-3.6,4.4-4.7,7.2c-1.1,2.8-1.7,5.8-1.7,9.1c0,3.8,0.6,7.2,1.8,10.1c1.2,2.9,2.9,5.3,5,7.2
			c2.1,1.9,4.5,3.4,7.2,4.4c2.7,1,5.6,1.5,8.6,1.5c1.2,0,2.4-0.1,3.6-0.3c1.2-0.2,2.4-0.5,3.5-0.8c1.1-0.4,2.3-0.8,3.4-1.4
			c0.9-0.5,1.5-1.2,1.7-2.1c0.2-1-0.1-2-0.8-2.9c-0.5-0.7-1.1-1.1-1.9-1.2c-0.8-0.1-1.5,0-2.4,0.4c-1.1,0.6-2.3,1-3.5,1.2
			c-3.3,0.6-6.8,0.4-9.7-0.6c-1.9-0.7-3.5-1.7-4.9-3.1c-1.4-1.4-2.5-3.1-3.3-5.1c-0.8-2-1.2-4.4-1.2-7.2c0-2.3,0.3-4.5,1-6.4
			c0.7-2,1.7-3.7,3.1-5.1c1.3-1.4,3-2.6,4.9-3.3c1.9-0.8,4.1-1.2,6.4-1.2c1.3,0,2.5,0.1,3.7,0.4c1.2,0.3,2.3,0.7,3.4,1.2
			c0.8,0.4,1.6,0.5,2.4,0.5c0.7-0.1,1.3-0.4,1.8-1.1c0.7-0.9,1-1.9,0.8-2.9c-0.2-1-0.7-1.8-1.7-2.3l0,0c-1.5-0.8-3.2-1.4-5-1.9
			C389.7,5.9,387.8,5.7,386,5.7z"/>
	</g>
	<g>
		<path class="st0" d="M421.1,5.5h21.6c1.1,0,2.1,0.4,2.8,1.1c0.8,0.7,1.1,1.7,1.1,2.8c0,1.1-0.4,2-1.1,2.7c-0.8,0.7-1.7,1-2.8,1
			h-18.1l0.6-1.1v12.8l-0.5-0.5h15.1c1.1,0,2.1,0.4,2.8,1.1c0.8,0.7,1.1,1.7,1.1,2.8c0,1.1-0.4,2-1.1,2.7c-0.8,0.7-1.7,1-2.8,1
			h-14.9l0.3-0.5v13.3l-0.5-0.6h18c1.1,0,2.1,0.4,2.8,1.2c0.8,0.8,1.1,1.7,1.1,2.7c0,1.1-0.4,2-1.1,2.7c-0.8,0.7-1.7,1.1-2.8,1.1
			h-21.6c-1.1,0-2.1-0.4-2.8-1.2c-0.8-0.8-1.1-1.7-1.1-2.9v-38c0-1.1,0.4-2.1,1.1-2.9C419,5.9,419.9,5.5,421.1,5.5z"/>
		<path class="st0" d="M442.7,52.1h-21.6c-1.3,0-2.4-0.4-3.2-1.3c-0.9-0.9-1.3-2-1.3-3.3v-38c0-1.3,0.4-2.4,1.3-3.3
			c0.9-0.9,1.9-1.3,3.2-1.3h21.6c1.3,0,2.3,0.4,3.2,1.2c0.9,0.8,1.3,1.9,1.3,3.2c0,1.3-0.4,2.3-1.3,3.1c-0.9,0.8-1.9,1.2-3.2,1.2
			h-16.9v10.1h14c1.3,0,2.3,0.4,3.2,1.2c0.9,0.8,1.3,1.9,1.3,3.2c0,1.3-0.4,2.3-1.3,3.1c-0.9,0.8-1.9,1.2-3.2,1.2h-14v11.1h16.9
			c1.3,0,2.4,0.4,3.2,1.3c0.9,0.9,1.3,1.9,1.3,3.1c0,1.3-0.4,2.3-1.3,3.1C445,51.7,443.9,52.1,442.7,52.1z M421.1,6
			c-1,0-1.8,0.3-2.4,1c-0.7,0.7-1,1.5-1,2.5v38c0,1,0.3,1.8,1,2.5c0.6,0.7,1.4,1,2.4,1h21.6c1,0,1.8-0.3,2.4-0.9
			c0.6-0.6,1-1.3,1-2.3c0-0.9-0.3-1.6-1-2.3c-0.6-0.7-1.4-1-2.4-1l-16.9,0v1.5l-2.3-2.7h1.2V32.4h-0.8l1.9-3.1v2h14
			c1,0,1.8-0.3,2.4-0.9c0.6-0.6,0.9-1.3,0.9-2.2c0-1-0.3-1.8-1-2.4c-0.7-0.6-1.4-0.9-2.4-0.9h-14v1.3l-2.4-2.5h1.3l0-10.1h-0.9
			l2.1-4v2.9h16.9c1,0,1.8-0.3,2.4-0.9c0.6-0.6,0.9-1.3,0.9-2.2c0-1-0.3-1.8-1-2.4c-0.6-0.6-1.4-0.9-2.4-0.9H421.1z"/>
	</g>
</g>
</svg>
